<?xml version="1.0" encoding="UTF-8"?> <!-- Generator: Adobe Illustrator 24.1.1, SVG Export Plug-In . SVG Version: 6.00 Build 0) --> <svg xmlns="http://www.w3.org/2000/svg" xmlns:xlink="http://www.w3.org/1999/xlink" version="1.1" id="Calque_1" x="0px" y="0px" viewBox="0 0 40 40" style="enable-background:new 0 0 40 40;" xml:space="preserve"> <style type="text/css"> .st0{fill:#FFFFFF;} </style> <g> <g> <path class="st0" d="M33.7,20c0,7.5-6.1,13.7-13.7,13.7S6.4,27.5,6.4,20S12.5,6.4,20,6.4S33.7,12.5,33.7,20z"></path> <path class="st0" d="M20,0C8.9,0,0,8.9,0,20s8.9,20,20,20s20-8.9,20-20S31.1,0,20,0z M20,36.7c-9.2,0-16.7-7.5-16.7-16.7 S10.8,3.3,20,3.3c9.2,0,16.7,7.5,16.7,16.7C36.7,29.2,29.2,36.7,20,36.7z"></path> </g> </g> </svg> 