<?xml version="1.0" encoding="UTF-8"?> <!-- Generator: Adobe Illustrator 24.1.1, SVG Export Plug-In . SVG Version: 6.00 Build 0) --> <svg xmlns="http://www.w3.org/2000/svg" xmlns:xlink="http://www.w3.org/1999/xlink" version="1.1" id="Calque_1" x="0px" y="0px" viewBox="0 0 566.9 250" style="enable-background:new 0 0 566.9 250;" xml:space="preserve"> <style type="text/css"> .st0{fill:#E30613;} </style> <g> <g> <path class="st0" d="M152.8,40.8v137.7h-43.7v-19.4c-6.9,12.6-22.8,22.9-44,22.9C28.6,181.9,0,150.8,0,109.7s28.6-72.3,65.1-72.3 c20.3,0,36.6,9.7,44,23.1V40.8H152.8z M109.1,109.7c0-18.9-13.1-35.1-32.8-35.1s-32.8,16.3-32.8,35.1c0,19.1,13.1,35.1,32.8,35.1 C96,144.8,109.1,128.8,109.1,109.7z"></path> <path class="st0" d="M283.6,94.8c-1.4-11.7-9.7-20.6-26-20.6c-22.6,0-31.7,16.6-31.7,35.4c0,19.1,9.4,35.4,32.6,35.4 c14.9,0,21.7-6.6,25.4-18.3h43.7c-4,30.8-28.3,55.4-70.5,55.4c-49.7,0-74.8-34.3-74.8-72.5c0-38,25.1-72.5,74.8-72.5 c45.4,0,67.7,28.6,70.3,57.7H283.6z"></path> <path class="st0" d="M445.3,178.5c-6.6,1.1-16,2.3-29.4,2.3c-20.3,0-48.6-2.6-48.6-48.6V73.4h-21.7V40.8h21.7V0h43.4v40.8h31.4 v32.6h-31.4v49.1c0,20.6,8,23.4,20,23.4c3.7,0,10.6-0.3,14.6-0.9V178.5z"></path> </g> <g> <path class="st0" d="M552,133.4c0,17.8-14.4,32.2-32.2,32.2s-32.2-14.4-32.2-32.2s14.4-32.2,32.2-32.2 C537.5,101.2,552,115.6,552,133.4z"></path> <path class="st0" d="M519.7,86.2c-26.1,0-47.2,21.1-47.2,47.2s21.1,47.2,47.2,47.2c26.1,0,47.2-21.1,47.2-47.2 C566.9,107.4,545.8,86.2,519.7,86.2z M519.7,172.9c-21.8,0-39.4-17.7-39.4-39.4c0-21.8,17.7-39.4,39.4-39.4 c21.8,0,39.4,17.7,39.4,39.4C559.2,155.2,541.5,172.9,519.7,172.9z"></path> </g> <g> <path class="st0" d="M3.5,217.5h14.9c6,0,9.6,3.2,9.6,8.3c0,3.8-1.7,7-5.5,8v0.1c3.7,0.7,4.4,3.4,4.8,6.5c0.3,3.1,0.1,6.6,1.9,8.8 h-4.7c-1.2-1.3-0.5-4.7-1.2-7.8c-0.4-3.1-1.2-5.7-5.3-5.7H7.8v13.6H3.5V217.5z M16.6,232.2c4,0,7.3-1,7.3-5.6 c0-3.1-1.7-5.4-5.6-5.4H7.8v11.1h8.8V232.2z"></path> <path class="st0" d="M62.4,217.5h21.9v3.6H66.6v10.1h16.5v3.6H66.6v11h17.8v3.6h-22C62.4,249.4,62.4,217.5,62.4,217.5z"></path> <path class="st0" d="M135.4,226.8c-0.5-4.5-3.5-6.5-7.9-6.5c-3.6,0-7.1,1.3-7.1,5.4c0,3.9,5.1,4.5,10.2,5.6 c5.1,1.2,10.1,2.9,10.1,9.2c0,6.8-6.6,9.5-12.4,9.5c-7.1,0-13.1-3.5-13.1-11.2h4c0,5.3,4.4,7.6,9.2,7.6c3.8,0,8-1.2,8-5.8 c0-4.4-5.1-5.1-10.1-6.2c-5.1-1.1-10.2-2.6-10.2-8.4c0-6.4,5.7-9.3,11.5-9.3c6.5,0,11.4,3.1,11.7,10L135.4,226.8L135.4,226.8z"></path> <path class="st0" d="M174.3,217.5h13.9c6.3,0,9.7,3.5,9.7,9.4s-3.4,9.4-9.7,9.4h-9.7v13h-4.2V217.5z M178.6,232.7h8.3 c4.8,0,6.9-2,6.9-5.8s-2.2-5.8-6.9-5.8h-8.3V232.7z"></path> <path class="st0" d="M239,216.8c10.1,0,15.2,8,15.2,16.6S249.1,250,239,250s-15.2-8-15.2-16.6S228.9,216.8,239,216.8z M239,246.5 c7.7,0,11-6.7,11-13.1c0-6.4-3.2-13.1-11-13.1c-7.7,0-11,6.7-11,13.1S231.3,246.5,239,246.5z"></path> <path class="st0" d="M283.3,217.5h4.5l16.7,25.7h0.1v-25.7h4v31.7H304l-16.6-25.5h-0.1v25.5h-4V217.5z"></path> <path class="st0" d="M358,226.8c-0.5-4.5-3.5-6.5-7.9-6.5c-3.6,0-7.1,1.3-7.1,5.4c0,3.9,5.1,4.5,10.2,5.6 c5.1,1.2,10.1,2.9,10.1,9.2c0,6.8-6.6,9.5-12.4,9.5c-7.1,0-13.1-3.5-13.1-11.2h4c0,5.3,4.4,7.6,9.2,7.6c3.8,0,8-1.2,8-5.8 c0-4.4-5.1-5.1-10.1-6.2c-5.1-1.1-10.2-2.6-10.2-8.4c0-6.4,5.7-9.3,11.5-9.3c6.5,0,11.4,3.1,11.7,10L358,226.8L358,226.8z"></path> <path class="st0" d="M401,217.5h4.7l12.4,31.7h-4.7l-3.5-9.6h-13.4l-3.6,9.6h-4.4L401,217.5z M397.9,236.2h10.7l-5.3-14.8h-0.1 L397.9,236.2z"></path> <path class="st0" d="M445.7,217.5h11.5c2.8,0,6.5,0,8.4,1.2c2.1,1.2,3.7,3.5,3.7,6.6c0,3.4-1.8,5.9-4.7,7.1v0.1 c3.9,0.8,6,3.7,6,7.6c0,4.7-3.3,9.1-9.6,9.1h-15.3V217.5z M449.9,231.2h8.4c4.8,0,6.8-1.7,6.8-5.1c0-4.4-3.1-5-6.8-5h-8.4V231.2z M449.9,245.7h10.6c3.6,0,6-2.2,6-5.7c0-4.1-3.3-5.3-6.9-5.3H450v11H449.9z"></path> <path class="st0" d="M498.8,217.5h4.2v28.2h16.8v3.6h-21V217.5z"></path> <path class="st0" d="M542.6,217.5h21.9v3.6h-17.7v10.1h16.5v3.6h-16.5v11h17.8v3.6h-22V217.5z"></path> </g> </g> </svg> 