<?xml version="1.0" encoding="UTF-8"?> <!-- Generator: Adobe Illustrator 25.0.1, SVG Export Plug-In . SVG Version: 6.00 Build 0) --> <svg xmlns="http://www.w3.org/2000/svg" xmlns:xlink="http://www.w3.org/1999/xlink" version="1.1" id="Calque_1" x="0px" y="0px" viewBox="0 0 607.5 815" style="enable-background:new 0 0 607.5 815;" xml:space="preserve"> <style type="text/css"> .st0{opacity:0.3;fill:#FFFFFF;enable-background:new ;} </style> <path class="st0" d="M414.9,8.5h192.6v-1H415c0,0,0,0,0,0c0-4.1-3.4-7.5-7.5-7.5S400,3.4,400,7.5c0,0,0,0,0,0H215c0,0,0,0,0,0 c0-4.1-3.4-7.5-7.5-7.5S200,3.4,200,7.5c0,0,0,0,0,0H15c0,0,0,0,0,0C15,3.4,11.6,0,7.5,0S0,3.4,0,7.5S3.4,15,7.5,15v185 c-4.1,0-7.5,3.4-7.5,7.5s3.4,7.5,7.5,7.5v185c-4.1,0-7.5,3.4-7.5,7.5s3.4,7.5,7.5,7.5v185c-4.1,0-7.5,3.4-7.5,7.5s3.4,7.5,7.5,7.5 v185c-4.1,0-7.5,3.4-7.5,7.5s3.4,7.5,7.5,7.5c3.8,0,6.9-2.8,7.4-6.5h185.1c0.5,3.7,3.6,6.5,7.4,6.5s6.9-2.8,7.4-6.5h185.1 c0.5,3.7,3.6,6.5,7.4,6.5s6.9-2.8,7.4-6.5h192.6v-1H415c0,0,0,0,0,0c0-3.8-2.8-6.9-6.5-7.4V614.9c3.3-0.4,6-3.1,6.4-6.4h192.6v-1 H415c0,0,0,0,0,0c0-3.8-2.8-6.9-6.5-7.4V414.9c3.3-0.4,6-3.1,6.4-6.4h192.6v-1H415c0,0,0,0,0,0c0-3.8-2.8-6.9-6.5-7.4V214.9 c3.3-0.4,6-3.1,6.4-6.4h192.6v-1H415c0,0,0,0,0,0c0-3.8-2.8-6.9-6.5-7.4V14.9C411.8,14.5,414.5,11.8,414.9,8.5z M8.5,14.9 c3.3-0.4,6-3.1,6.4-6.4h185.1c0.5,3.7,3.6,6.5,7.4,6.5v185c-4.1,0-7.5,3.4-7.5,7.5c0,0,0,0,0,0H15c0,0,0,0,0,0 c0-3.8-2.8-6.9-6.5-7.4V14.9z M8.5,214.9c3.3-0.4,6-3.1,6.4-6.4h185.1c0.5,3.7,3.6,6.5,7.4,6.5v185c-4.1,0-7.5,3.4-7.5,7.5 c0,0,0,0,0,0H15c0,0,0,0,0,0c0-3.8-2.8-6.9-6.5-7.4V214.9z M8.5,414.9c3.3-0.4,6-3.1,6.4-6.4h185.1c0.5,3.7,3.6,6.5,7.4,6.5v185 c-4.1,0-7.5,3.4-7.5,7.5c0,0,0,0,0,0H15c0,0,0,0,0,0c0-3.8-2.8-6.9-6.5-7.4V414.9z M15,807.5C15,807.5,15,807.5,15,807.5 c0-3.8-2.8-6.9-6.5-7.4V614.9c3.3-0.4,6-3.1,6.4-6.4h185.1c0.5,3.7,3.6,6.5,7.4,6.5v185c-4.1,0-7.5,3.4-7.5,7.5c0,0,0,0,0,0H15z M407.5,800c-4.1,0-7.5,3.4-7.5,7.5c0,0,0,0,0,0H215c0,0,0,0,0,0c0-3.8-2.8-6.9-6.5-7.4V614.9c3.3-0.4,6-3.1,6.4-6.4h185.1 c0.5,3.7,3.6,6.5,7.4,6.5V800z M407.5,600c-4.1,0-7.5,3.4-7.5,7.5c0,0,0,0,0,0H215c0,0,0,0,0,0c0-3.8-2.8-6.9-6.5-7.4V414.9 c3.3-0.4,6-3.1,6.4-6.4h185.1c0.5,3.7,3.6,6.5,7.4,6.5V600z M407.5,400c-4.1,0-7.5,3.4-7.5,7.5c0,0,0,0,0,0H215c0,0,0,0,0,0 c0-3.8-2.8-6.9-6.5-7.4V214.9c3.3-0.4,6-3.1,6.4-6.4h185.1c0.5,3.7,3.6,6.5,7.4,6.5V400z M407.5,200c-4.1,0-7.5,3.4-7.5,7.5 c0,0,0,0,0,0H215c0,0,0,0,0,0c0-3.8-2.8-6.9-6.5-7.4V14.9c3.3-0.4,6-3.1,6.4-6.4h185.1c0.5,3.7,3.6,6.5,7.4,6.5V200z"></path> </svg> 