<?xml version="1.0" encoding="UTF-8"?> <svg xmlns="http://www.w3.org/2000/svg" id="Calque_1" data-name="Calque 1" viewBox="0 0 28 28"><defs><style>.cls-1{fill:#fff;}</style></defs><path class="cls-1" d="M18.91,16,19,16l5-2-5-2-.09,0,0-.09,2.12-5L16.12,9.05l-.09,0L16,9,14,4,12,9l0,.09-.09,0-5-2.12,2.12,5,0,.09L9,12,4,14l5,2,.09,0,0,.09L6.93,21.07l5-2.12.09,0L12,19l2,5,2-5,0-.09.09,0,4.95,2.12L19,16.12ZM14,19a5,5,0,1,1,5-5A5,5,0,0,1,14,19Z"></path><circle class="cls-1" cx="14" cy="14" r="3"></circle></svg> 